<mxfile host="app.diagrams.net" modified="2023-05-16T09:46:40.886Z" agent="Mozilla/5.0 (Windows NT 10.0; Win64; x64) AppleWebKit/537.36 (KHTML, like Gecko) Chrome/113.0.0.0 Safari/537.36" etag="jNj7SEVOzOpijZQR3Gan" version="21.2.9" type="github">
  <diagram name="Page-1" id="_kLY5bPCUYCWvSMNOn80">
    <mxGraphModel dx="2514" dy="899" grid="1" gridSize="10" guides="1" tooltips="1" connect="1" arrows="1" fold="1" page="1" pageScale="1" pageWidth="827" pageHeight="1169" math="0" shadow="0">
      <root>
        <mxCell id="0" />
        <mxCell id="1" parent="0" />
        <mxCell id="SeYS0S-EycvQ9wmlJvQh-1" value="&lt;font style=&quot;font-size: 18px;&quot;&gt;Mobile Application&lt;/font&gt;" style="rounded=0;whiteSpace=wrap;html=1;" vertex="1" parent="1">
          <mxGeometry x="40" y="40" width="120" height="80" as="geometry" />
        </mxCell>
        <mxCell id="SeYS0S-EycvQ9wmlJvQh-2" value="" style="line;strokeWidth=4;direction=south;html=1;perimeter=backbonePerimeter;points=[];outlineConnect=0;" vertex="1" parent="1">
          <mxGeometry x="95" y="120" width="10" height="880" as="geometry" />
        </mxCell>
        <mxCell id="SeYS0S-EycvQ9wmlJvQh-3" value="&lt;font style=&quot;font-size: 18px;&quot;&gt;Backend&lt;/font&gt;" style="rounded=0;whiteSpace=wrap;html=1;" vertex="1" parent="1">
          <mxGeometry x="520" y="40" width="120" height="80" as="geometry" />
        </mxCell>
        <mxCell id="SeYS0S-EycvQ9wmlJvQh-4" value="" style="line;strokeWidth=4;direction=south;html=1;perimeter=backbonePerimeter;points=[];outlineConnect=0;" vertex="1" parent="1">
          <mxGeometry x="575" y="120" width="10" height="880" as="geometry" />
        </mxCell>
        <mxCell id="SeYS0S-EycvQ9wmlJvQh-5" value="&lt;font style=&quot;font-size: 18px;&quot;&gt;Database&lt;br&gt;&lt;/font&gt;" style="rounded=0;whiteSpace=wrap;html=1;" vertex="1" parent="1">
          <mxGeometry x="1000" y="40" width="120" height="80" as="geometry" />
        </mxCell>
        <mxCell id="SeYS0S-EycvQ9wmlJvQh-20" style="edgeStyle=orthogonalEdgeStyle;rounded=0;orthogonalLoop=1;jettySize=auto;html=1;entryX=1;entryY=0.5;entryDx=0;entryDy=0;" edge="1" parent="1" source="SeYS0S-EycvQ9wmlJvQh-6" target="SeYS0S-EycvQ9wmlJvQh-19">
          <mxGeometry relative="1" as="geometry">
            <mxPoint x="720" y="420" as="targetPoint" />
            <Array as="points">
              <mxPoint x="770" y="370" />
              <mxPoint x="770" y="370" />
            </Array>
          </mxGeometry>
        </mxCell>
        <mxCell id="SeYS0S-EycvQ9wmlJvQh-6" value="" style="line;strokeWidth=4;direction=south;html=1;perimeter=backbonePerimeter;points=[];outlineConnect=0;" vertex="1" parent="1">
          <mxGeometry x="1055" y="120" width="10" height="880" as="geometry" />
        </mxCell>
        <mxCell id="SeYS0S-EycvQ9wmlJvQh-8" value="&lt;font style=&quot;font-size: 14px;&quot;&gt;{ &quot;&lt;b&gt;pan&lt;/b&gt;&quot;:&quot;8600 0000 0000 0000&quot;,&lt;br&gt;&quot;&lt;b&gt;operationType&lt;/b&gt;&quot;:&quot;p2p(conversion)&quot;}&lt;/font&gt;" style="rounded=0;whiteSpace=wrap;html=1;" vertex="1" parent="1">
          <mxGeometry x="-15" y="170" width="230" height="80" as="geometry" />
        </mxCell>
        <mxCell id="SeYS0S-EycvQ9wmlJvQh-12" value="{ &quot;&lt;b style=&quot;border-color: var(--border-color); font-size: 14px;&quot;&gt;pan&lt;/b&gt;&lt;span style=&quot;font-size: 14px;&quot;&gt;&quot;:&quot;8600 0000 0000 0000&quot;}&lt;/span&gt;" style="rounded=0;whiteSpace=wrap;html=1;" vertex="1" parent="1">
          <mxGeometry x="445" y="170" width="270" height="80" as="geometry" />
        </mxCell>
        <mxCell id="SeYS0S-EycvQ9wmlJvQh-15" style="edgeStyle=orthogonalEdgeStyle;rounded=0;orthogonalLoop=1;jettySize=auto;html=1;entryX=0.13;entryY=-0.025;entryDx=0;entryDy=0;entryPerimeter=0;" edge="1" parent="1" source="SeYS0S-EycvQ9wmlJvQh-14" target="SeYS0S-EycvQ9wmlJvQh-8">
          <mxGeometry relative="1" as="geometry" />
        </mxCell>
        <mxCell id="SeYS0S-EycvQ9wmlJvQh-14" value="Give pan and operationType&lt;br&gt;for get cards" style="ellipse;shape=cloud;whiteSpace=wrap;html=1;" vertex="1" parent="1">
          <mxGeometry x="-130" y="30" width="120" height="80" as="geometry" />
        </mxCell>
        <mxCell id="SeYS0S-EycvQ9wmlJvQh-17" style="edgeStyle=orthogonalEdgeStyle;rounded=0;orthogonalLoop=1;jettySize=auto;html=1;entryX=0.137;entryY=-0.025;entryDx=0;entryDy=0;entryPerimeter=0;" edge="1" parent="1" source="SeYS0S-EycvQ9wmlJvQh-16" target="SeYS0S-EycvQ9wmlJvQh-12">
          <mxGeometry relative="1" as="geometry" />
        </mxCell>
        <mxCell id="SeYS0S-EycvQ9wmlJvQh-16" value="get card(account, wallet)&lt;br&gt;&amp;nbsp;info by pan&amp;nbsp;" style="ellipse;shape=cloud;whiteSpace=wrap;html=1;" vertex="1" parent="1">
          <mxGeometry x="290" y="30" width="200" height="80" as="geometry" />
        </mxCell>
        <mxCell id="SeYS0S-EycvQ9wmlJvQh-19" value="&quot;&lt;b&gt;type&lt;/b&gt;&quot;: &quot;humo&quot;,&lt;br&gt;&amp;nbsp;&quot;&lt;b&gt;status&lt;/b&gt;&quot;: &quot;active&quot;,&lt;br&gt;&quot;&lt;b&gt;currency&lt;/b&gt;&quot;: &amp;nbsp;&quot;UZS&quot;&lt;br&gt;&quot;&lt;b&gt;bank&lt;/b&gt;&quot; : &quot;00045&quot;" style="rounded=0;whiteSpace=wrap;html=1;" vertex="1" parent="1">
          <mxGeometry x="440" y="330" width="290" height="80" as="geometry" />
        </mxCell>
        <mxCell id="SeYS0S-EycvQ9wmlJvQh-21" value="request" style="text;html=1;align=center;verticalAlign=middle;resizable=0;points=[];autosize=1;strokeColor=none;fillColor=none;" vertex="1" parent="1">
          <mxGeometry x="870" y="180" width="60" height="30" as="geometry" />
        </mxCell>
        <mxCell id="SeYS0S-EycvQ9wmlJvQh-22" value="request" style="text;html=1;align=center;verticalAlign=middle;resizable=0;points=[];autosize=1;strokeColor=none;fillColor=none;" vertex="1" parent="1">
          <mxGeometry x="290" y="180" width="60" height="30" as="geometry" />
        </mxCell>
        <mxCell id="SeYS0S-EycvQ9wmlJvQh-23" value="reponse" style="text;html=1;align=center;verticalAlign=middle;resizable=0;points=[];autosize=1;strokeColor=none;fillColor=none;" vertex="1" parent="1">
          <mxGeometry x="855" y="340" width="70" height="30" as="geometry" />
        </mxCell>
        <mxCell id="SeYS0S-EycvQ9wmlJvQh-28" style="edgeStyle=orthogonalEdgeStyle;rounded=0;orthogonalLoop=1;jettySize=auto;html=1;" edge="1" parent="1" source="SeYS0S-EycvQ9wmlJvQh-24">
          <mxGeometry relative="1" as="geometry">
            <mxPoint x="1050" y="530" as="targetPoint" />
          </mxGeometry>
        </mxCell>
        <mxCell id="SeYS0S-EycvQ9wmlJvQh-24" value="&quot;&lt;b&gt;type&lt;/b&gt;&quot;: &quot;humo&quot;,&lt;br&gt;&amp;nbsp;&quot;&lt;b&gt;status&lt;/b&gt;&quot;: &quot;active&quot;,&lt;br&gt;&quot;&lt;b&gt;currency&lt;/b&gt;&quot;: &amp;nbsp;&quot;UZS&quot;&lt;br&gt;&quot;&lt;b&gt;bank&lt;/b&gt;&quot; : &quot;00045&quot;&lt;br&gt;&quot;&lt;b&gt;operationType&lt;/b&gt;&quot;:&quot;p2p&quot;" style="rounded=0;whiteSpace=wrap;html=1;" vertex="1" parent="1">
          <mxGeometry x="435" y="490" width="290" height="80" as="geometry" />
        </mxCell>
        <mxCell id="SeYS0S-EycvQ9wmlJvQh-27" style="edgeStyle=orthogonalEdgeStyle;rounded=0;orthogonalLoop=1;jettySize=auto;html=1;" edge="1" parent="1" source="SeYS0S-EycvQ9wmlJvQh-25">
          <mxGeometry relative="1" as="geometry">
            <mxPoint x="430" y="540" as="targetPoint" />
            <Array as="points">
              <mxPoint x="314" y="499" />
              <mxPoint x="411" y="499" />
            </Array>
          </mxGeometry>
        </mxCell>
        <mxCell id="SeYS0S-EycvQ9wmlJvQh-25" value="get criteria for this card&lt;br&gt;(account, wallet)" style="ellipse;shape=cloud;whiteSpace=wrap;html=1;" vertex="1" parent="1">
          <mxGeometry x="214" y="378" width="200" height="80" as="geometry" />
        </mxCell>
        <mxCell id="SeYS0S-EycvQ9wmlJvQh-29" value="request" style="text;html=1;align=center;verticalAlign=middle;resizable=0;points=[];autosize=1;strokeColor=none;fillColor=none;" vertex="1" parent="1">
          <mxGeometry x="855" y="500" width="60" height="30" as="geometry" />
        </mxCell>
        <mxCell id="SeYS0S-EycvQ9wmlJvQh-30" value="&quot;&lt;b&gt;type&lt;/b&gt;&quot;: &quot;[humo, uzcard, wallet]&quot;,&lt;br&gt;&amp;nbsp;&quot;&lt;b&gt;status&lt;/b&gt;&quot;: &quot;active&quot;,&lt;br&gt;&quot;&lt;b&gt;currency&lt;/b&gt;&quot;: &amp;nbsp;&quot;[UZS, USD]&quot;&lt;br&gt;&quot;&lt;b&gt;bank&lt;/b&gt;&quot; : &quot;[1,2,3,4,5]&quot;" style="rounded=0;whiteSpace=wrap;html=1;" vertex="1" parent="1">
          <mxGeometry x="440" y="630" width="290" height="80" as="geometry" />
        </mxCell>
        <mxCell id="SeYS0S-EycvQ9wmlJvQh-32" value="response" style="text;html=1;align=center;verticalAlign=middle;resizable=0;points=[];autosize=1;strokeColor=none;fillColor=none;" vertex="1" parent="1">
          <mxGeometry x="855" y="640" width="70" height="30" as="geometry" />
        </mxCell>
        <mxCell id="SeYS0S-EycvQ9wmlJvQh-34" value="&quot;&lt;b&gt;type&lt;/b&gt;&quot;: &quot;[humo, uzcard, wallet]&quot;,&lt;br&gt;&amp;nbsp;&quot;&lt;b&gt;status&lt;/b&gt;&quot;: &quot;active&quot;,&lt;br&gt;&quot;&lt;b&gt;currency&lt;/b&gt;&quot;: &amp;nbsp;&quot;[UZS, USD]&quot;&lt;br&gt;&quot;&lt;b&gt;bank&lt;/b&gt;&quot; : &quot;[1,2,3,4,5]&quot;" style="rounded=0;whiteSpace=wrap;html=1;" vertex="1" parent="1">
          <mxGeometry x="435" y="790" width="290" height="80" as="geometry" />
        </mxCell>
        <mxCell id="SeYS0S-EycvQ9wmlJvQh-36" style="edgeStyle=orthogonalEdgeStyle;rounded=0;orthogonalLoop=1;jettySize=auto;html=1;entryX=1;entryY=0.5;entryDx=0;entryDy=0;" edge="1" parent="1">
          <mxGeometry relative="1" as="geometry">
            <mxPoint x="727" y="939.5" as="targetPoint" />
            <mxPoint x="1055" y="939.5" as="sourcePoint" />
            <Array as="points">
              <mxPoint x="867" y="939.5" />
              <mxPoint x="867" y="939.5" />
            </Array>
          </mxGeometry>
        </mxCell>
        <mxCell id="SeYS0S-EycvQ9wmlJvQh-37" value="get cards" style="rounded=0;whiteSpace=wrap;html=1;" vertex="1" parent="1">
          <mxGeometry x="435" y="910" width="285" height="60" as="geometry" />
        </mxCell>
        <mxCell id="SeYS0S-EycvQ9wmlJvQh-38" value="&lt;font style=&quot;font-size: 13px;&quot;&gt;request&lt;/font&gt;" style="text;html=1;align=center;verticalAlign=middle;resizable=0;points=[];autosize=1;strokeColor=none;fillColor=none;" vertex="1" parent="1">
          <mxGeometry x="845" y="800" width="70" height="30" as="geometry" />
        </mxCell>
        <mxCell id="SeYS0S-EycvQ9wmlJvQh-39" style="edgeStyle=orthogonalEdgeStyle;rounded=0;orthogonalLoop=1;jettySize=auto;html=1;" edge="1" parent="1" source="SeYS0S-EycvQ9wmlJvQh-40">
          <mxGeometry relative="1" as="geometry">
            <mxPoint x="435" y="822" as="targetPoint" />
            <Array as="points">
              <mxPoint x="319" y="781" />
              <mxPoint x="416" y="781" />
            </Array>
          </mxGeometry>
        </mxCell>
        <mxCell id="SeYS0S-EycvQ9wmlJvQh-40" value="get cards (wallet, account)&lt;br&gt;by criteria" style="ellipse;shape=cloud;whiteSpace=wrap;html=1;" vertex="1" parent="1">
          <mxGeometry x="219" y="660" width="200" height="80" as="geometry" />
        </mxCell>
        <mxCell id="SeYS0S-EycvQ9wmlJvQh-42" value="response" style="text;html=1;align=center;verticalAlign=middle;resizable=0;points=[];autosize=1;strokeColor=none;fillColor=none;" vertex="1" parent="1">
          <mxGeometry x="214" y="910" width="70" height="30" as="geometry" />
        </mxCell>
        <mxCell id="SeYS0S-EycvQ9wmlJvQh-43" value="response" style="text;html=1;align=center;verticalAlign=middle;resizable=0;points=[];autosize=1;strokeColor=none;fillColor=none;" vertex="1" parent="1">
          <mxGeometry x="860" y="910" width="70" height="30" as="geometry" />
        </mxCell>
        <mxCell id="SeYS0S-EycvQ9wmlJvQh-47" value="" style="endArrow=none;dashed=1;html=1;rounded=0;fillColor=#f8cecc;strokeColor=#b85450;strokeWidth=0;shape=arrow;" edge="1" parent="1">
          <mxGeometry width="50" height="50" relative="1" as="geometry">
            <mxPoint x="720" y="210" as="sourcePoint" />
            <mxPoint x="1050" y="210" as="targetPoint" />
          </mxGeometry>
        </mxCell>
        <mxCell id="SeYS0S-EycvQ9wmlJvQh-48" value="" style="endArrow=none;dashed=1;html=1;rounded=0;exitX=1;exitY=0.75;exitDx=0;exitDy=0;fillColor=#f8cecc;strokeColor=#b85450;strokeWidth=0;shape=arrow;" edge="1" parent="1">
          <mxGeometry width="50" height="50" relative="1" as="geometry">
            <mxPoint x="220" y="210" as="sourcePoint" />
            <mxPoint x="445" y="210" as="targetPoint" />
          </mxGeometry>
        </mxCell>
        <mxCell id="SeYS0S-EycvQ9wmlJvQh-49" value="" style="endArrow=none;dashed=1;html=1;rounded=0;fillColor=#f8cecc;strokeColor=#b85450;strokeWidth=0;shape=arrow;" edge="1" parent="1" source="SeYS0S-EycvQ9wmlJvQh-6">
          <mxGeometry width="50" height="50" relative="1" as="geometry">
            <mxPoint x="1045" y="369.5" as="sourcePoint" />
            <mxPoint x="730" y="370" as="targetPoint" />
          </mxGeometry>
        </mxCell>
        <mxCell id="SeYS0S-EycvQ9wmlJvQh-50" value="" style="endArrow=none;dashed=1;html=1;rounded=0;fillColor=#f8cecc;strokeColor=#b85450;strokeWidth=0;shape=arrow;exitX=0.624;exitY=0.5;exitDx=0;exitDy=0;exitPerimeter=0;entryX=1;entryY=0.5;entryDx=0;entryDy=0;" edge="1" parent="1" source="SeYS0S-EycvQ9wmlJvQh-6" target="SeYS0S-EycvQ9wmlJvQh-30">
          <mxGeometry width="50" height="50" relative="1" as="geometry">
            <mxPoint x="1035" y="669" as="sourcePoint" />
            <mxPoint x="745" y="669" as="targetPoint" />
          </mxGeometry>
        </mxCell>
        <mxCell id="SeYS0S-EycvQ9wmlJvQh-51" value="" style="endArrow=none;dashed=1;html=1;rounded=0;fillColor=#f8cecc;strokeColor=#b85450;strokeWidth=0;shape=arrow;" edge="1" parent="1">
          <mxGeometry width="50" height="50" relative="1" as="geometry">
            <mxPoint x="725" y="529" as="sourcePoint" />
            <mxPoint x="1055" y="529" as="targetPoint" />
          </mxGeometry>
        </mxCell>
        <mxCell id="SeYS0S-EycvQ9wmlJvQh-52" value="" style="endArrow=none;dashed=1;html=1;rounded=0;fillColor=#f8cecc;strokeColor=#b85450;strokeWidth=0;shape=arrow;" edge="1" parent="1">
          <mxGeometry width="50" height="50" relative="1" as="geometry">
            <mxPoint x="730" y="829" as="sourcePoint" />
            <mxPoint x="1060" y="829" as="targetPoint" />
          </mxGeometry>
        </mxCell>
        <mxCell id="SeYS0S-EycvQ9wmlJvQh-53" value="" style="endArrow=none;dashed=1;html=1;rounded=0;fillColor=#f8cecc;strokeColor=#b85450;strokeWidth=0;shape=arrow;entryX=1;entryY=0.5;entryDx=0;entryDy=0;" edge="1" parent="1" source="SeYS0S-EycvQ9wmlJvQh-6" target="SeYS0S-EycvQ9wmlJvQh-37">
          <mxGeometry width="50" height="50" relative="1" as="geometry">
            <mxPoint x="1040" y="940" as="sourcePoint" />
            <mxPoint x="750" y="940" as="targetPoint" />
          </mxGeometry>
        </mxCell>
        <mxCell id="SeYS0S-EycvQ9wmlJvQh-55" value="" style="endArrow=none;dashed=1;html=1;rounded=0;fillColor=#f8cecc;strokeColor=#b85450;strokeWidth=0;shape=arrow;exitX=0.5;exitY=1;exitDx=0;exitDy=0;" edge="1" parent="1">
          <mxGeometry width="50" height="50" relative="1" as="geometry">
            <mxPoint x="580" y="410" as="sourcePoint" />
            <mxPoint x="579.5" y="490" as="targetPoint" />
          </mxGeometry>
        </mxCell>
        <mxCell id="SeYS0S-EycvQ9wmlJvQh-57" value="" style="endArrow=none;dashed=1;html=1;rounded=0;fillColor=#f8cecc;strokeColor=#b85450;strokeWidth=0;shape=arrow;exitX=0.5;exitY=1;exitDx=0;exitDy=0;" edge="1" parent="1">
          <mxGeometry width="50" height="50" relative="1" as="geometry">
            <mxPoint x="580" y="710" as="sourcePoint" />
            <mxPoint x="579.5" y="790" as="targetPoint" />
          </mxGeometry>
        </mxCell>
        <mxCell id="SeYS0S-EycvQ9wmlJvQh-58" value="" style="endArrow=none;dashed=1;html=1;rounded=0;fillColor=#f8cecc;strokeColor=#b85450;strokeWidth=0;shape=arrow;" edge="1" parent="1">
          <mxGeometry width="50" height="50" relative="1" as="geometry">
            <mxPoint x="430" y="940" as="sourcePoint" />
            <mxPoint x="180" y="940" as="targetPoint" />
          </mxGeometry>
        </mxCell>
        <mxCell id="SeYS0S-EycvQ9wmlJvQh-59" value="&lt;font style=&quot;font-size: 18px;&quot;&gt;show they&lt;/font&gt;" style="rounded=0;whiteSpace=wrap;html=1;" vertex="1" parent="1">
          <mxGeometry x="30" y="900" width="150" height="60" as="geometry" />
        </mxCell>
      </root>
    </mxGraphModel>
  </diagram>
</mxfile>
